<mxfile host="app.diagrams.net" modified="2024-04-07T13:50:26.029Z" agent="Mozilla/5.0 (Linux; Android 10; K) AppleWebKit/537.36 (KHTML, like Gecko) Chrome/123.0.0.0 Mobile Safari/537.36 EdgA/123.0.0.0" etag="3T97dI9gp5ptcAF9yCzj" version="24.2.2" type="onedrive">
  <diagram name="Trang-1" id="bpLUDji0QoNA-7gcJpaR">
    <mxGraphModel grid="1" page="1" gridSize="10" guides="1" tooltips="1" connect="1" arrows="1" fold="1" pageScale="1" pageWidth="1169" pageHeight="827" math="0" shadow="0">
      <root>
        <mxCell id="0" />
        <mxCell id="1" parent="0" />
        <mxCell id="zWDrjdS9SBRiUTxSyIpa-34" style="edgeStyle=orthogonalEdgeStyle;rounded=0;orthogonalLoop=1;jettySize=auto;html=1;entryX=0;entryY=0.5;entryDx=0;entryDy=0;fontSize=29;" edge="1" parent="1" source="zWDrjdS9SBRiUTxSyIpa-2" target="zWDrjdS9SBRiUTxSyIpa-32">
          <mxGeometry relative="1" as="geometry" />
        </mxCell>
        <mxCell id="zWDrjdS9SBRiUTxSyIpa-2" value="" style="rounded=1;whiteSpace=wrap;html=1;fontSize=29;" vertex="1" parent="1">
          <mxGeometry x="975" y="83.5" width="800" height="370" as="geometry" />
        </mxCell>
        <mxCell id="zWDrjdS9SBRiUTxSyIpa-3" value="Server" style="text;html=1;align=center;verticalAlign=middle;whiteSpace=wrap;rounded=0;fontSize=29;" vertex="1" parent="1">
          <mxGeometry x="1345" y="113.5" width="60" height="30" as="geometry" />
        </mxCell>
        <mxCell id="zWDrjdS9SBRiUTxSyIpa-4" value="Raspberry Pi" style="text;html=1;align=center;verticalAlign=middle;whiteSpace=wrap;rounded=0;fontSize=29;" vertex="1" parent="1">
          <mxGeometry x="1305" y="383.5" width="140" height="40" as="geometry" />
        </mxCell>
        <mxCell id="zWDrjdS9SBRiUTxSyIpa-19" style="edgeStyle=orthogonalEdgeStyle;rounded=0;orthogonalLoop=1;jettySize=auto;html=1;entryX=1;entryY=0.5;entryDx=0;entryDy=0;fontSize=29;" edge="1" parent="1" source="zWDrjdS9SBRiUTxSyIpa-5" target="zWDrjdS9SBRiUTxSyIpa-14">
          <mxGeometry relative="1" as="geometry" />
        </mxCell>
        <mxCell id="zWDrjdS9SBRiUTxSyIpa-5" value="" style="rounded=1;whiteSpace=wrap;html=1;fontSize=29;" vertex="1" parent="1">
          <mxGeometry x="1015" y="221" width="150" height="95" as="geometry" />
        </mxCell>
        <mxCell id="zWDrjdS9SBRiUTxSyIpa-6" value="The Things Stack" style="text;html=1;align=center;verticalAlign=middle;whiteSpace=wrap;rounded=0;fontSize=29;" vertex="1" parent="1">
          <mxGeometry x="1040" y="243.5" width="100" height="50" as="geometry" />
        </mxCell>
        <mxCell id="zWDrjdS9SBRiUTxSyIpa-8" value="" style="rounded=1;whiteSpace=wrap;html=1;fontSize=29;" vertex="1" parent="1">
          <mxGeometry x="1395" y="221" width="150" height="95" as="geometry" />
        </mxCell>
        <mxCell id="zWDrjdS9SBRiUTxSyIpa-9" value="Home Asisstant" style="text;html=1;align=center;verticalAlign=middle;whiteSpace=wrap;rounded=0;fontSize=29;" vertex="1" parent="1">
          <mxGeometry x="1420" y="243.5" width="100" height="50" as="geometry" />
        </mxCell>
        <mxCell id="zWDrjdS9SBRiUTxSyIpa-10" value="" style="rounded=1;whiteSpace=wrap;html=1;fontSize=29;" vertex="1" parent="1">
          <mxGeometry x="1585" y="221" width="150" height="95" as="geometry" />
        </mxCell>
        <mxCell id="zWDrjdS9SBRiUTxSyIpa-11" value="PostgreSQL DB" style="text;html=1;align=center;verticalAlign=middle;whiteSpace=wrap;rounded=0;fontSize=29;" vertex="1" parent="1">
          <mxGeometry x="1610" y="243.5" width="100" height="50" as="geometry" />
        </mxCell>
        <mxCell id="zWDrjdS9SBRiUTxSyIpa-12" value="" style="rounded=1;whiteSpace=wrap;html=1;fontSize=29;" vertex="1" parent="1">
          <mxGeometry x="1205" y="221" width="150" height="95" as="geometry" />
        </mxCell>
        <mxCell id="zWDrjdS9SBRiUTxSyIpa-13" value="Mosquitto Broker" style="text;html=1;align=center;verticalAlign=middle;whiteSpace=wrap;rounded=0;fontSize=29;" vertex="1" parent="1">
          <mxGeometry x="1230" y="243.5" width="100" height="50" as="geometry" />
        </mxCell>
        <mxCell id="zWDrjdS9SBRiUTxSyIpa-17" value="" style="group;fontSize=29;" vertex="1" connectable="0" parent="1">
          <mxGeometry x="660" y="60" width="140" height="256" as="geometry" />
        </mxCell>
        <mxCell id="zWDrjdS9SBRiUTxSyIpa-14" value="Gateway" style="rounded=1;whiteSpace=wrap;html=1;fontSize=29;" vertex="1" parent="zWDrjdS9SBRiUTxSyIpa-17">
          <mxGeometry y="160.7082494969819" width="140" height="95.29175050301812" as="geometry" />
        </mxCell>
        <mxCell id="zWDrjdS9SBRiUTxSyIpa-15" value="" style="sketch=0;aspect=fixed;pointerEvents=1;shadow=0;dashed=0;html=1;strokeColor=none;labelPosition=center;verticalLabelPosition=bottom;verticalAlign=top;align=center;fillColor=#00188D;shape=mxgraph.mscae.enterprise.wireless_connection;rotation=-90;fontSize=29;" vertex="1" parent="zWDrjdS9SBRiUTxSyIpa-17">
          <mxGeometry x="49" y="-4.120724346076459" width="42" height="50" as="geometry" />
        </mxCell>
        <mxCell id="zWDrjdS9SBRiUTxSyIpa-16" value="" style="verticalLabelPosition=bottom;shadow=0;dashed=0;align=center;html=1;verticalAlign=top;shape=mxgraph.electrical.radio.aerial_-_antenna_1;fontSize=29;" vertex="1" parent="zWDrjdS9SBRiUTxSyIpa-17">
          <mxGeometry x="30" y="57.69014084507043" width="80" height="107.13883299798793" as="geometry" />
        </mxCell>
        <mxCell id="zWDrjdS9SBRiUTxSyIpa-18" style="edgeStyle=orthogonalEdgeStyle;rounded=0;orthogonalLoop=1;jettySize=auto;html=1;entryX=0;entryY=0.5;entryDx=0;entryDy=0;fontSize=29;" edge="1" parent="1" source="zWDrjdS9SBRiUTxSyIpa-14" target="zWDrjdS9SBRiUTxSyIpa-5">
          <mxGeometry relative="1" as="geometry" />
        </mxCell>
        <mxCell id="zWDrjdS9SBRiUTxSyIpa-20" value="" style="group;fontSize=29;" vertex="1" connectable="0" parent="1">
          <mxGeometry x="260" y="60" width="140" height="256" as="geometry" />
        </mxCell>
        <mxCell id="zWDrjdS9SBRiUTxSyIpa-21" value="Node" style="rounded=1;whiteSpace=wrap;html=1;fontSize=29;" vertex="1" parent="zWDrjdS9SBRiUTxSyIpa-20">
          <mxGeometry y="160.7082494969819" width="140" height="95.29175050301812" as="geometry" />
        </mxCell>
        <mxCell id="zWDrjdS9SBRiUTxSyIpa-22" value="" style="sketch=0;aspect=fixed;pointerEvents=1;shadow=0;dashed=0;html=1;strokeColor=none;labelPosition=center;verticalLabelPosition=bottom;verticalAlign=top;align=center;fillColor=#00188D;shape=mxgraph.mscae.enterprise.wireless_connection;rotation=-90;fontSize=29;" vertex="1" parent="zWDrjdS9SBRiUTxSyIpa-20">
          <mxGeometry x="49" y="-4.120724346076459" width="42" height="50" as="geometry" />
        </mxCell>
        <mxCell id="zWDrjdS9SBRiUTxSyIpa-23" value="" style="verticalLabelPosition=bottom;shadow=0;dashed=0;align=center;html=1;verticalAlign=top;shape=mxgraph.electrical.radio.aerial_-_antenna_1;fontSize=29;" vertex="1" parent="zWDrjdS9SBRiUTxSyIpa-20">
          <mxGeometry x="30" y="57.69014084507043" width="80" height="107.13883299798793" as="geometry" />
        </mxCell>
        <mxCell id="zWDrjdS9SBRiUTxSyIpa-28" value="" style="group;fontSize=29;" vertex="1" connectable="0" parent="1">
          <mxGeometry x="260" y="430" width="140" height="256" as="geometry" />
        </mxCell>
        <mxCell id="zWDrjdS9SBRiUTxSyIpa-29" value="Node" style="rounded=1;whiteSpace=wrap;html=1;fontSize=29;" vertex="1" parent="zWDrjdS9SBRiUTxSyIpa-28">
          <mxGeometry y="160.7082494969819" width="140" height="95.29175050301812" as="geometry" />
        </mxCell>
        <mxCell id="zWDrjdS9SBRiUTxSyIpa-30" value="" style="sketch=0;aspect=fixed;pointerEvents=1;shadow=0;dashed=0;html=1;strokeColor=none;labelPosition=center;verticalLabelPosition=bottom;verticalAlign=top;align=center;fillColor=#00188D;shape=mxgraph.mscae.enterprise.wireless_connection;rotation=-90;fontSize=29;" vertex="1" parent="zWDrjdS9SBRiUTxSyIpa-28">
          <mxGeometry x="49" y="-4.120724346076459" width="42" height="50" as="geometry" />
        </mxCell>
        <mxCell id="zWDrjdS9SBRiUTxSyIpa-31" value="" style="verticalLabelPosition=bottom;shadow=0;dashed=0;align=center;html=1;verticalAlign=top;shape=mxgraph.electrical.radio.aerial_-_antenna_1;fontSize=29;" vertex="1" parent="zWDrjdS9SBRiUTxSyIpa-28">
          <mxGeometry x="30" y="57.69014084507043" width="80" height="107.13883299798793" as="geometry" />
        </mxCell>
        <mxCell id="zWDrjdS9SBRiUTxSyIpa-35" style="edgeStyle=orthogonalEdgeStyle;rounded=0;orthogonalLoop=1;jettySize=auto;html=1;entryX=1;entryY=0.5;entryDx=0;entryDy=0;fontSize=29;" edge="1" parent="1" source="zWDrjdS9SBRiUTxSyIpa-32" target="zWDrjdS9SBRiUTxSyIpa-2">
          <mxGeometry relative="1" as="geometry" />
        </mxCell>
        <mxCell id="zWDrjdS9SBRiUTxSyIpa-32" value="AR Core&lt;br style=&quot;font-size: 29px;&quot;&gt;Smarrt phone" style="rounded=1;whiteSpace=wrap;html=1;fontSize=29;" vertex="1" parent="1">
          <mxGeometry x="1930" y="208.5" width="190" height="120" as="geometry" />
        </mxCell>
        <mxCell id="zWDrjdS9SBRiUTxSyIpa-36" value="TCP/IP&lt;br style=&quot;font-size: 29px;&quot;&gt;LoraWAN" style="text;html=1;align=center;verticalAlign=middle;whiteSpace=wrap;rounded=0;fontSize=29;" vertex="1" parent="1">
          <mxGeometry x="870" y="210" width="60" height="50" as="geometry" />
        </mxCell>
        <mxCell id="zWDrjdS9SBRiUTxSyIpa-39" value="" style="endArrow=classic;startArrow=classic;html=1;rounded=0;fontSize=29;" edge="1" parent="1">
          <mxGeometry width="50" height="50" relative="1" as="geometry">
            <mxPoint x="445" y="270" as="sourcePoint" />
            <mxPoint x="640" y="270" as="targetPoint" />
          </mxGeometry>
        </mxCell>
        <mxCell id="zWDrjdS9SBRiUTxSyIpa-40" value="LoraRF&lt;br style=&quot;font-size: 29px;&quot;&gt;LoraWAN" style="text;html=1;align=center;verticalAlign=middle;whiteSpace=wrap;rounded=0;fontSize=29;" vertex="1" parent="1">
          <mxGeometry x="520" y="220" width="60" height="30" as="geometry" />
        </mxCell>
        <mxCell id="zWDrjdS9SBRiUTxSyIpa-61" style="edgeStyle=orthogonalEdgeStyle;rounded=0;orthogonalLoop=1;jettySize=auto;html=1;entryX=0.5;entryY=0;entryDx=0;entryDy=0;fontSize=29;" edge="1" parent="1" source="zWDrjdS9SBRiUTxSyIpa-41" target="zWDrjdS9SBRiUTxSyIpa-59">
          <mxGeometry relative="1" as="geometry" />
        </mxCell>
        <mxCell id="zWDrjdS9SBRiUTxSyIpa-41" value="" style="rounded=1;whiteSpace=wrap;html=1;fontSize=29;" vertex="1" parent="1">
          <mxGeometry x="-740" y="-321.04999999999995" width="659" height="720" as="geometry" />
        </mxCell>
        <mxCell id="zWDrjdS9SBRiUTxSyIpa-25" value="MCU" style="rounded=1;whiteSpace=wrap;html=1;fontSize=29;" vertex="1" parent="1">
          <mxGeometry x="-480.5" y="229.99824949698188" width="140" height="95.29175050301812" as="geometry" />
        </mxCell>
        <mxCell id="zWDrjdS9SBRiUTxSyIpa-44" value="Solar Panel" style="rounded=1;whiteSpace=wrap;html=1;fontSize=29;" vertex="1" parent="1">
          <mxGeometry x="-644.5" y="-240.00175050301823" width="140" height="95.29175050301812" as="geometry" />
        </mxCell>
        <mxCell id="zWDrjdS9SBRiUTxSyIpa-45" value="LoRa RF module" style="rounded=1;whiteSpace=wrap;html=1;fontSize=29;" vertex="1" parent="1">
          <mxGeometry x="-324.5" y="-240.00175050301823" width="140" height="95.29175050301812" as="geometry" />
        </mxCell>
        <mxCell id="zWDrjdS9SBRiUTxSyIpa-46" value="" style="group;fontSize=29;" vertex="1" connectable="0" parent="1">
          <mxGeometry x="260" y="-300" width="140" height="256" as="geometry" />
        </mxCell>
        <mxCell id="zWDrjdS9SBRiUTxSyIpa-47" value="Node" style="rounded=1;whiteSpace=wrap;html=1;fontSize=29;" vertex="1" parent="zWDrjdS9SBRiUTxSyIpa-46">
          <mxGeometry y="160.7082494969819" width="140" height="95.29175050301812" as="geometry" />
        </mxCell>
        <mxCell id="zWDrjdS9SBRiUTxSyIpa-48" value="" style="sketch=0;aspect=fixed;pointerEvents=1;shadow=0;dashed=0;html=1;strokeColor=none;labelPosition=center;verticalLabelPosition=bottom;verticalAlign=top;align=center;fillColor=#00188D;shape=mxgraph.mscae.enterprise.wireless_connection;rotation=-90;fontSize=29;" vertex="1" parent="zWDrjdS9SBRiUTxSyIpa-46">
          <mxGeometry x="49" y="-4.120724346076459" width="42" height="50" as="geometry" />
        </mxCell>
        <mxCell id="zWDrjdS9SBRiUTxSyIpa-49" value="" style="verticalLabelPosition=bottom;shadow=0;dashed=0;align=center;html=1;verticalAlign=top;shape=mxgraph.electrical.radio.aerial_-_antenna_1;fontSize=29;" vertex="1" parent="zWDrjdS9SBRiUTxSyIpa-46">
          <mxGeometry x="30" y="57.69014084507043" width="80" height="107.13883299798793" as="geometry" />
        </mxCell>
        <mxCell id="zWDrjdS9SBRiUTxSyIpa-52" value="" style="sketch=0;aspect=fixed;pointerEvents=1;shadow=0;dashed=0;html=1;strokeColor=none;labelPosition=center;verticalLabelPosition=bottom;verticalAlign=top;align=center;fillColor=#00188D;shape=mxgraph.mscae.enterprise.wireless_connection;rotation=-90;fontSize=29;" vertex="1" parent="1">
          <mxGeometry x="-431.5" y="-490.0007243460766" width="42" height="50" as="geometry" />
        </mxCell>
        <mxCell id="zWDrjdS9SBRiUTxSyIpa-53" value="" style="verticalLabelPosition=bottom;shadow=0;dashed=0;align=center;html=1;verticalAlign=top;shape=mxgraph.electrical.radio.aerial_-_antenna_1;fontSize=29;" vertex="1" parent="1">
          <mxGeometry x="-450.5" y="-428.18985915492976" width="80" height="107.13883299798793" as="geometry" />
        </mxCell>
        <mxCell id="zWDrjdS9SBRiUTxSyIpa-57" value="Battery" style="rounded=1;whiteSpace=wrap;html=1;fontSize=29;" vertex="1" parent="1">
          <mxGeometry x="-480.5" y="-30.00175050301823" width="140" height="95.29175050301812" as="geometry" />
        </mxCell>
        <mxCell id="zWDrjdS9SBRiUTxSyIpa-62" style="edgeStyle=orthogonalEdgeStyle;rounded=0;orthogonalLoop=1;jettySize=auto;html=1;entryX=0.5;entryY=1;entryDx=0;entryDy=0;fontSize=29;" edge="1" parent="1" source="zWDrjdS9SBRiUTxSyIpa-59" target="zWDrjdS9SBRiUTxSyIpa-41">
          <mxGeometry relative="1" as="geometry" />
        </mxCell>
        <mxCell id="zWDrjdS9SBRiUTxSyIpa-59" value="MCU&lt;br style=&quot;font-size: 29px;&quot;&gt;CH32V003" style="rounded=1;whiteSpace=wrap;html=1;fontSize=29;" vertex="1" parent="1">
          <mxGeometry x="-617.5" y="510" width="414" height="270" as="geometry" />
        </mxCell>
        <mxCell id="zWDrjdS9SBRiUTxSyIpa-60" value="Node" style="text;html=1;align=center;verticalAlign=middle;whiteSpace=wrap;rounded=0;fontSize=29;" vertex="1" parent="1">
          <mxGeometry x="-440.5" y="-280" width="60" height="30" as="geometry" />
        </mxCell>
        <mxCell id="zWDrjdS9SBRiUTxSyIpa-63" value="Sensor" style="text;html=1;align=center;verticalAlign=middle;whiteSpace=wrap;rounded=0;fontSize=29;" vertex="1" parent="1">
          <mxGeometry x="-440.5" y="530" width="60" height="30" as="geometry" />
        </mxCell>
        <mxCell id="zWDrjdS9SBRiUTxSyIpa-64" value="RS485" style="text;html=1;align=center;verticalAlign=middle;whiteSpace=wrap;rounded=0;fontSize=29;" vertex="1" parent="1">
          <mxGeometry x="-380.5" y="440" width="60" height="30" as="geometry" />
        </mxCell>
        <mxCell id="zWDrjdS9SBRiUTxSyIpa-65" value="&lt;font style=&quot;font-size: 29px;&quot;&gt;Light, Temperature, CO&lt;sub&gt;2&lt;/sub&gt;, Humidity&lt;/font&gt;" style="text;html=1;align=center;verticalAlign=middle;whiteSpace=wrap;rounded=0;fontSize=29;" vertex="1" parent="1">
          <mxGeometry x="-550.75" y="720" width="280.5" height="40" as="geometry" />
        </mxCell>
      </root>
    </mxGraphModel>
  </diagram>
</mxfile>
